/* XPM */
static char * fiji_icon_16x16_xpm[] = {
"16 16 50 1",
" 	c None",
".	c #005E25",
"+	c #006128",
"@	c #006B2D",
"#	c #007330",
"$	c #00692B",
"%	c #00672A",
"&	c #006B2C",
"*	c #005D26",
"=	c #006729",
"-	c #006F2E",
";	c #00682A",
">	c #007230",
",	c #006529",
"'	c #006C2C",
")	c #006C2D",
"!	c #006E2E",
"~	c #00712F",
"{	c #006A2C",
"]	c #006027",
"^	c #00682B",
"/	c #016A2C",
"(	c #02702F",
"_	c #00702F",
":	c #0B6D27",
"<	c #026429",
"[	c #75551D",
"}	c #2F5D23",
"|	c #006D2D",
"1	c #00692D",
"2	c #C2D504",
"3	c #A4CF10",
"4	c #EFF300",
"5	c #006629",
"6	c #93551B",
"7	c #00692C",
"8	c #F8FA00",
"9	c #FFFF00",
"0	c #EFF500",
"a	c #8F561C",
"b	c #92581C",
"c	c #003215",
"d	c #ECF200",
"e	c #000000",
"f	c #945A1E",
"g	c #8B531A",
"h	c #91571C",
"i	c #834F19",
"j	c #844F18",
"k	c #663D12",
"    .           ",
"   +@#$ %&$*    ",
"     =-;>%      ",
" ,#>')!~{%&     ",
" { ]^/(_&$$:    ",
"   &<[}|1 234   ",
"  5  6 $7 890   ",
"    ab c=  d  e ",
"    f           ",
"   gh     ee    ",
"   ai e   ee e  ",
"   jk  ee  e ee ",
"          e     ",
"          e     ",
"         e      ",
"         e      "};
