<?xml version="1.0" encoding="UTF-8" standalone="no"?>
<!-- Created with Inkscape (http://www.inkscape.org/) -->
<svg
   xmlns:dc="http://purl.org/dc/elements/1.1/"
   xmlns:cc="http://creativecommons.org/ns#"
   xmlns:rdf="http://www.w3.org/1999/02/22-rdf-syntax-ns#"
   xmlns:svg="http://www.w3.org/2000/svg"
   xmlns="http://www.w3.org/2000/svg"
   xmlns:sodipodi="http://sodipodi.sourceforge.net/DTD/sodipodi-0.dtd"
   xmlns:inkscape="http://www.inkscape.org/namespaces/inkscape"
   width="90"
   height="90"
   id="svg2562"
   sodipodi:version="0.32"
   inkscape:version="0.46"
   version="1.0"
   sodipodi:docname="drawing.svg"
   inkscape:output_extension="org.inkscape.output.svg.inkscape">
  <defs
     id="defs2564">
    <filter
       inkscape:collect="always"
       id="filter4018"
       x="-0.10909091"
       width="1.2181818"
       y="-0.10909091"
       height="1.2181818">
      <feGaussianBlur
         inkscape:collect="always"
         stdDeviation="3.1818182"
         id="feGaussianBlur4020" />
    </filter>
    <inkscape:perspective
       sodipodi:type="inkscape:persp3d"
       inkscape:vp_x="0 : 526.18109 : 1"
       inkscape:vp_y="0 : 1000 : 0"
       inkscape:vp_z="744.09448 : 526.18109 : 1"
       inkscape:persp3d-origin="372.04724 : 350.78739 : 1"
       id="perspective2570" />
  </defs>
  <sodipodi:namedview
     id="base"
     pagecolor="#ffffff"
     bordercolor="#666666"
     borderopacity="1.0"
     gridtolerance="10000"
     guidetolerance="10"
     objecttolerance="10"
     inkscape:pageopacity="0.0"
     inkscape:pageshadow="2"
     inkscape:zoom="2.8"
     inkscape:cx="20.106628"
     inkscape:cy="44.642857"
     inkscape:document-units="px"
     inkscape:current-layer="layer1"
     showgrid="false"
     width="90px"
     inkscape:window-width="640"
     inkscape:window-height="654"
     inkscape:window-x="0"
     inkscape:window-y="0" />
  <metadata
     id="metadata2567">
    <rdf:RDF>
      <cc:Work
         rdf:about="">
        <dc:format>image/svg+xml</dc:format>
        <dc:type
           rdf:resource="http://purl.org/dc/dcmitype/StillImage" />
      </cc:Work>
    </rdf:RDF>
  </metadata>
  <g
     inkscape:label="Layer 1"
     inkscape:groupmode="layer"
     id="layer1">
    <path
       style="opacity:0.71538463;fill:#000000;fill-opacity:1;fill-rule:nonzero;stroke:none;stroke-width:0.39498281;stroke-linecap:butt;stroke-linejoin:miter;marker:none;marker-start:none;marker-mid:none;marker-end:none;stroke-miterlimit:4;stroke-dasharray:none;stroke-dashoffset:0;stroke-opacity:0;visibility:visible;display:inline;overflow:visible;filter:url(#filter4018);enable-background:accumulate"
       d="M 11.930261,10 L 11.930261,80 L 21.930262,80 L 21.930262,20 L 81.930261,20 L 81.930261,10 L 21.930262,10 L 11.930261,10 z M 31.930262,30 L 31.930262,60 L 41.930261,60 L 41.930261,30 L 31.930262,30 z M 51.930261,30 L 51.930261,70 L 31.930262,70 L 31.930262,80 L 51.930261,80 L 61.930261,80 L 61.930261,30 L 51.930261,30 z M 71.930261,30 L 71.930261,60 L 81.930261,60 L 81.930261,30 L 71.930261,30 z"
       id="path4268"
       inkscape:export-filename="/home/albert/webs/fiji/fiji-logo-1.0-256x256.png"
       inkscape:export-xdpi="256"
       inkscape:export-ydpi="256" />
    <path
       style="fill:#65a4e3;fill-opacity:1;fill-rule:nonzero;stroke:#000000;stroke-width:0.39498281;stroke-linecap:butt;stroke-linejoin:miter;marker:none;marker-start:none;marker-mid:none;marker-end:none;stroke-miterlimit:4;stroke-dasharray:none;stroke-dashoffset:0;stroke-opacity:0;visibility:visible;display:inline;overflow:visible;enable-background:accumulate"
       d="M 10.197491,8.5032996 L 10.197491,78.5033 L 20.197492,78.5033 L 20.197492,18.5033 L 80.197491,18.5033 L 80.197491,8.5032996 L 20.197492,8.5032996 L 10.197491,8.5032996 z M 30.197492,28.5033 L 30.197492,58.5033 L 40.197491,58.5033 L 40.197491,28.5033 L 30.197492,28.5033 z M 50.197491,28.5033 L 50.197491,68.5033 L 30.197492,68.5033 L 30.197492,78.5033 L 50.197491,78.5033 L 60.197491,78.5033 L 60.197491,28.5033 L 50.197491,28.5033 z M 70.197491,28.5033 L 70.197491,58.5033 L 80.197491,58.5033 L 80.197491,28.5033 L 70.197491,28.5033 z"
       id="path4270"
       inkscape:export-filename="/home/albert/webs/fiji/fiji-logo-1.0-256x256.png"
       inkscape:export-xdpi="256"
       inkscape:export-ydpi="256" />
  </g>
</svg>
