/* XPM */
static char * fiji_icon_32x32_xpm[] = {
"32 32 125 2",
"  	c None",
". 	c #005B24",
"+ 	c #00672A",
"@ 	c #007330",
"# 	c #007430",
"$ 	c #007230",
"% 	c #00692B",
"& 	c #006128",
"* 	c #005D27",
"= 	c #006A2C",
"- 	c #006829",
"; 	c #006B2B",
"> 	c #006C2C",
", 	c #006E2E",
"' 	c #006F2F",
") 	c #006026",
"! 	c #00672B",
"~ 	c #006F2E",
"{ 	c #007531",
"] 	c #00712F",
"^ 	c #006228",
"/ 	c #005723",
"( 	c #00702E",
"_ 	c #006A2D",
": 	c #005F27",
"< 	c #00702F",
"[ 	c #00682B",
"} 	c #005D26",
"| 	c #005824",
"1 	c #006D2D",
"2 	c #006127",
"3 	c #007431",
"4 	c #006328",
"5 	c #00662A",
"6 	c #006A2B",
"7 	c #006529",
"8 	c #006629",
"9 	c #005F26",
"0 	c #005924",
"a 	c #00722F",
"b 	c #005C25",
"c 	c #006B2C",
"d 	c #006329",
"e 	c #005D24",
"f 	c #005925",
"g 	c #004F20",
"h 	c #036228",
"i 	c #0E6328",
"j 	c #005825",
"k 	c #036829",
"l 	c #006D2E",
"m 	c #2C7D20",
"n 	c #D7D900",
"o 	c #C2C600",
"p 	c #005222",
"q 	c #006A2A",
"r 	c #714B18",
"s 	c #905A1E",
"t 	c #50521D",
"u 	c #00672C",
"v 	c #CBDB05",
"w 	c #438E1F",
"x 	c #75AF17",
"y 	c #FFFF00",
"z 	c #EDF200",
"A 	c #006027",
"B 	c #007732",
"C 	c #96581C",
"D 	c #965A1E",
"E 	c #006429",
"F 	c #F1F600",
"G 	c #CADF07",
"H 	c #DEED04",
"I 	c #FCFF00",
"J 	c #B6BC00",
"K 	c #8C521A",
"L 	c #9E6020",
"M 	c #845019",
"N 	c #EEF400",
"O 	c #FEFF00",
"P 	c #F9FF00",
"Q 	c #B9BF00",
"R 	c #9C5F20",
"S 	c #8F571B",
"T 	c #00662B",
"U 	c #FBFF00",
"V 	c #F0F500",
"W 	c #88521A",
"X 	c #9D5F20",
"Y 	c #8A551A",
"Z 	c #00441C",
"` 	c #007932",
" .	c #C8CD00",
"..	c #F7FF00",
"+.	c #D2D800",
"@.	c #C5CA00",
"#.	c #000000",
"$.	c #975C1F",
"%.	c #955B1E",
"&.	c #93591C",
"*.	c #90571C",
"=.	c #000301",
"-.	c #005F28",
";.	c #CFD300",
">.	c #844F19",
",.	c #9A5E1F",
"'.	c #8D561B",
").	c #834F1A",
"!.	c #000903",
"~.	c #005A23",
"{.	c #8C551B",
"].	c #995D1F",
"^.	c #945A1E",
"/.	c #8A531A",
"(.	c #7D4B18",
"_.	c #834F19",
":.	c #8C551C",
"<.	c #965C1E",
"[.	c #4A2C0D",
"}.	c #86511A",
"|.	c #9D6020",
"1.	c #1C1005",
"2.	c #704416",
"3.	c #704414",
"4.	c #6F4314",
"                                                                ",
"          . + @ # @ $ % &             * = -                     ",
"              ; > = , ' # )       ! ~ @ # { ] ^                 ",
"                  / $ ~ ( _   : ~ ] , < [ }                     ",
"                    | 1 , 1 2 < ~ ' 3 4                         ",
"        5 [ ' < < 6 7 = , , ] , ' 8 9                           ",
"    0 $ a < , ~ < ' < , , , , , ' 7 4 8 1 % b                   ",
"  ) 3 ~ ] 6 ] c c c , , , , , , , ' ] $ < < 3                   ",
"  [ ] $ d   9   e % ] ' , , , , , > $ = c ' $ f                 ",
"g >           % $ ] h i , ~ , , ] ^ j     k l m n o             ",
"p         q $ ] $ d r s t u $ , ~ !       v w x y z             ",
"        A B $ 5     C D   E [ < , $     F y G H I y J           ",
"        % [ %     K L M       # , <     N y O I P y Q           ",
"        7         R S         % @ T       U y y y V             ",
"                W X Y         Z ` b        .V ..+.@.    #.#.    ",
"                $.%.&.*.    =.-.)             ;.      #.#.#.    ",
"              >.,.%.'.).  #.!.~.                      #.#.      ",
"              {.].{.                                            ",
"              ^.,./.                        #.#.                ",
"              ,.,.(.                      #.#.#.                ",
"            _.,.,.        #.#.          #.#.#.      #.#.        ",
"            :.].<.[.  #.#.#.#.      #.#.  #.#.    #.#.#.#.      ",
"            }.|.].1.#.#.#.#.#.    #.#.    #.#.  #.#.#.#.#.      ",
"            2.3.4.        #.#.#.#.#.      #.#.#.#.    #.#.#.#.  ",
"                            #.#.          #.#.#.        #.#.    ",
"                                          #.                    ",
"                                        #.#.                    ",
"                                      #.#.                      ",
"                                      #.#.                      ",
"                                    #.#.                        ",
"                                    #.#.                        ",
"                                    #.                          "};
