/* XPM */
static char * fiji_logo_16x16_xpm[] = {
"16 16 3 1",
" 	c None",
".	c #65A4E3",
"+	c #D1D1D1",
"                ",
" .............. ",
" ..............+",
" ..+++++++++++++",
" ..+            ",
" ..+ ..  ..  .. ",
" ..+ ..+ ..+ ..+",
" ..+ ..+ ..+ ..+",
" ..+ ..+ ..+ ..+",
" ..+ ..+ ..+ ..+",
" ..+ ..+ ..+ ..+",
" ..+  ++ ..+  ++",
" ..+     ..+    ",
" ..+ ......+    ",
" ..+ ......+    ",
"  ++  ++++++    "};
