/* XPM */
static char * fiji_logo_32x32_b_xpm[] = {
"32 32 3 1",
" 	c None",
".	c #65A4E3",
"+	c #D1D1D1",
"                                ",
"                                ",
"  ............................  ",
"  ............................+ ",
"  ............................+ ",
"  ............................+ ",
"  ....+++++++++++++++++++++++++ ",
"  ....+                         ",
"  ....+                         ",
"  ....+                         ",
"  ....+   ....    ....    ....  ",
"  ....+   ....+   ....+   ....+ ",
"  ....+   ....+   ....+   ....+ ",
"  ....+   ....+   ....+   ....+ ",
"  ....+   ....+   ....+   ....+ ",
"  ....+   ....+   ....+   ....+ ",
"  ....+   ....+   ....+   ....+ ",
"  ....+   ....+   ....+   ....+ ",
"  ....+   ....+   ....+   ....+ ",
"  ....+   ....+   ....+   ....+ ",
"  ....+   ....+   ....+   ....+ ",
"  ....+   ....+   ....+   ....+ ",
"  ....+    ++++   ....+    ++++ ",
"  ....+           ....+         ",
"  ....+           ....+         ",
"  ....+           ....+         ",
"  ....+   ............+         ",
"  ....+   ............+         ",
"  ....+   ............+         ",
"  ....+   ............+         ",
"   ++++    ++++++++++++         ",
"                                "};
