/* XPM */
static char * fiji_logo_32x32_xpm[] = {
"32 32 4 1",
" 	c None",
".	c #65A4E3",
"+	c #D1D1D1",
"@	c #D5D5D5",
"                                ",
"                                ",
"                                ",
"                                ",
"    ........................    ",
"    ........................+   ",
"    ........................+   ",
"    ........................+   ",
"    ....+++++++++++++++++++++   ",
"    ....+                       ",
"    ....+                       ",
"    ....+  ...@   ...    ...    ",
"    ....+  ...+   ...+   ...+   ",
"    ....+  ...+   ...+   ...+   ",
"    ....+  ...+   ...+   ...+   ",
"    ....+  ...+   ...+   ...+   ",
"    ....+  ...+   ...+   ...+   ",
"    ....+  ...+   ...+   ...+   ",
"    ....+  ...+   ...+   ...+   ",
"    ....+  ...+   ...+   ...+   ",
"    ....+  ...+   ...+   ...+   ",
"    ....+   +++   ...+    +++   ",
"    ....+         ...+          ",
"    ....+         ...+          ",
"    ....+         ...+          ",
"    ....+  ..........+          ",
"    ....+  ..........+          ",
"    ....+  ..........+          ",
"     ++++   ++++++++++          ",
"                                ",
"                                ",
"                                "};
