<?xml version="1.0" encoding="UTF-8" standalone="no"?>
<!-- Created with Inkscape (http://www.inkscape.org/) -->
<svg
   xmlns:svg="http://www.w3.org/2000/svg"
   xmlns="http://www.w3.org/2000/svg"
   version="1.0"
   width="750"
   height="750"
   id="svg2"
   xml:space="preserve"><defs
     id="defs5"><clipPath
       id="clipPath17"><path
         d="M 0,600 L 600,600 L 600,0 L 0,0 L 0,600 z"
         id="path19" /></clipPath></defs><g
     transform="matrix(1.25,0,0,-1.25,0,750)"
     id="g11"><g
       id="g2437"><path
         d="M 348.52,332.717 L 344.275,307.972 L 366.649,319.734 C 359.802,322.899 353.662,327.325 348.52,332.717 M 378.745,315.663 L 390.32,292.211 L 401.629,315.124 C 398.358,314.567 395.003,314.261 391.574,314.261 C 387.168,314.261 382.879,314.754 378.745,315.663 M 312.98,348.401 L 339.768,344.509 C 335.874,351.39 333.305,359.117 332.423,367.353 L 312.98,348.401 z M 443.609,344.907 L 467.66,348.401 L 450.449,365.178 C 449.399,357.912 447.037,351.074 443.609,344.907 M 417.037,319.978 L 439.873,307.972 L 435.477,333.606 C 430.3,327.95 424.045,323.301 417.037,319.978 M 469.414,398.89 L 443.594,402.642 C 447.3,395.981 449.76,388.537 450.669,380.618 L 469.414,398.89 z M 438.119,439.32 L 416.329,427.864 C 422.976,424.818 428.965,420.59 434.023,415.439 L 438.119,439.32 z M 339.463,402.483 L 314.734,398.89 L 332.59,381.485 C 333.567,389.018 335.942,396.108 339.463,402.483 M 365.489,427.245 L 342.521,439.32 L 347.008,413.163 C 352.16,418.986 358.429,423.795 365.489,427.245 M 380.817,432.272 C 384.309,432.91 387.899,433.261 391.574,433.261 C 395.634,433.261 399.597,432.851 403.428,432.077 L 392.074,455.081 L 380.817,432.272 z"
         id="path21"
         style="fill:#ffff00;fill-opacity:1;fill-rule:nonzero;stroke:none" /><path
         d="M 348.52,332.717 L 344.275,307.972 L 366.649,319.734 C 359.802,322.899 353.662,327.325 348.52,332.717 z M 378.745,315.663 L 390.32,292.211 L 401.629,315.124 C 398.358,314.567 395.003,314.261 391.574,314.261 C 387.168,314.261 382.879,314.754 378.745,315.663 z M 312.98,348.401 L 339.768,344.509 C 335.874,351.39 333.305,359.117 332.423,367.353 L 312.98,348.401 z M 443.609,344.907 L 467.66,348.401 L 450.449,365.178 C 449.399,357.912 447.037,351.074 443.609,344.907 z M 417.037,319.978 L 439.873,307.972 L 435.477,333.606 C 430.3,327.95 424.045,323.301 417.037,319.978 z M 469.414,398.89 L 443.594,402.642 C 447.3,395.981 449.76,388.537 450.669,380.618 L 469.414,398.89 z M 438.119,439.32 L 416.329,427.864 C 422.976,424.818 428.965,420.59 434.023,415.439 L 438.119,439.32 z M 339.463,402.483 L 314.734,398.89 L 332.59,381.485 C 333.567,389.018 335.942,396.108 339.463,402.483 z M 365.489,427.245 L 342.521,439.32 L 347.008,413.163 C 352.16,418.986 358.429,423.795 365.489,427.245 z M 380.817,432.272 C 384.309,432.91 387.899,433.261 391.574,433.261 C 395.634,433.261 399.597,432.851 403.428,432.077 L 392.074,455.081 L 380.817,432.272 z"
         id="path23"
         style="fill:none;stroke:#000000;stroke-width:1;stroke-linecap:butt;stroke-linejoin:miter;stroke-miterlimit:4;stroke-dasharray:none;stroke-opacity:1" /><path
         d="M 442.748,373.761 C 442.748,345.499 419.837,322.587 391.574,322.587 C 363.312,322.587 340.4,345.499 340.4,373.761 C 340.4,402.023 363.312,424.935 391.574,424.935 C 419.837,424.935 442.748,402.023 442.748,373.761"
         id="path25"
         style="fill:#ffff00;fill-opacity:1;fill-rule:nonzero;stroke:none" /><path
         d="M 442.748,373.761 C 442.748,345.499 419.837,322.587 391.574,322.587 C 363.312,322.587 340.4,345.499 340.4,373.761 C 340.4,402.023 363.312,424.935 391.574,424.935 C 419.837,424.935 442.748,402.023 442.748,373.761 z"
         id="path27"
         style="fill:none;stroke:#000000;stroke-width:1;stroke-linecap:butt;stroke-linejoin:miter;stroke-miterlimit:4;stroke-dasharray:none;stroke-opacity:1" /><path
         d="M 269.357,333.952 C 272.482,333.952 274.764,333.327 276.201,332.077 C 277.639,330.827 278.357,329.015 278.357,326.64 C 277.607,323.14 276.982,320.202 276.482,317.827 C 275.232,313.327 274.139,309.64 273.201,306.765 C 272.264,303.89 271.545,301.827 271.045,300.577 C 269.92,297.827 268.389,295.421 266.451,293.358 C 264.514,291.296 262.17,289.452 259.42,287.827 C 256.545,285.827 254.139,284.421 252.201,283.608 C 250.264,282.796 248.92,282.452 248.17,282.577 C 246.045,282.827 244.014,283.046 242.076,283.233 C 240.139,283.421 238.232,283.515 236.357,283.515 C 234.732,284.39 233.451,286.077 232.514,288.577 C 231.576,291.077 231.107,294.452 231.107,298.702 C 231.107,302.452 233.389,307.171 237.951,312.858 C 242.514,318.546 246.545,321.577 250.045,321.952 C 252.17,324.577 254.67,327.577 257.545,330.952 C 258.795,331.827 260.42,332.546 262.42,333.108 C 264.42,333.671 266.732,333.952 269.357,333.952 M 147,187.515 L 148.125,188.827 L 148.688,190.702 C 152.066,195.327 201.861,200.046 210.365,207.483 C 218.869,214.921 224.748,220.952 228.002,225.577 C 229.252,227.577 230.689,229.015 232.314,229.89 C 233.939,230.765 235.568,231.202 237.193,231.202 C 241.568,231.202 245.26,230.104 248.26,227.913 C 251.26,225.718 253.264,222.433 254.264,218.05 C 255.139,214.167 255.955,210.249 256.705,206.304 C 257.455,202.358 258.08,198.382 258.58,194.374 C 259.455,191.897 260.518,188.132 261.768,183.085 C 263.018,178.038 263.959,175.14 264.584,174.39 C 265.209,173.14 266.146,172.233 267.396,171.671 C 268.646,171.108 270.213,170.827 272.088,170.827 C 274.338,170.827 276.654,171.233 279.029,172.046 C 281.404,172.858 283.846,174.265 286.35,176.265 C 288.225,177.89 290.193,179.546 292.256,181.233 C 294.318,182.921 296.354,184.577 298.357,186.202 L 305.857,168.952 C 303.857,166.937 301.197,164.64 297.885,162.062 C 294.568,159.479 290.596,156.491 285.971,153.093 C 280.842,149.315 276.463,146.515 272.838,144.69 C 269.209,142.862 266.459,141.952 264.584,141.952 C 253.201,141.952 245.818,143.265 242.443,145.897 C 239.068,148.526 235.314,155.854 231.189,167.882 C 230.689,168.968 229.936,170.202 228.936,171.577 C 227.936,172.952 226.811,174.577 225.561,176.452 C 224.061,179.327 222.744,181.483 221.619,182.921 C 220.494,184.358 219.557,185.077 218.807,185.077 C 216.807,185.077 214.115,183.733 210.74,181.046 C 207.361,178.358 159.375,175.64 154.5,170.265 C 153.875,171.89 153.094,173.827 152.156,176.077 C 151.219,178.327 150.25,180.952 149.25,183.952 C 149,184.702 148.688,185.39 148.313,186.015 C 147.938,186.64 147.5,187.14 147,187.515"
         id="path29"
         style="fill:#000000;fill-opacity:1;fill-rule:nonzero;stroke:none" /><path
         d="M 298.091,186.202 C 300.47,188.569 304.067,191.968 308.884,196.397 C 313.7,200.827 319.802,206.284 327.188,212.769 C 327.938,213.394 329.813,215.452 332.817,218.944 C 335.821,222.437 340.138,227.425 345.771,233.909 C 348.396,236.526 351.587,239.894 355.341,244.011 C 359.095,248.128 363.353,252.991 368.11,258.604 C 371.235,262.847 374.333,266.089 377.399,268.335 C 380.466,270.577 383.438,271.702 386.317,271.702 C 389.946,271.702 392.606,270.796 394.294,268.983 C 395.981,267.171 396.829,264.577 396.829,261.206 C 396.829,259.081 396.513,255.956 395.888,251.831 C 395.263,247.706 394.95,244.585 394.95,242.46 C 394.95,238.96 394.415,232.835 393.353,224.089 C 392.286,215.339 390.626,203.968 388.372,189.972 C 388.247,189.097 387.962,187.628 387.524,185.565 C 387.087,183.503 386.427,180.788 385.552,177.413 C 384.798,174.913 384.298,172.601 384.048,170.476 C 383.798,168.351 383.673,166.542 383.673,165.042 C 383.798,164.042 383.86,163.229 383.86,162.604 C 390.009,167.136 395.372,171.351 399.954,175.253 C 404.532,179.151 408.329,182.804 411.341,186.202 L 418.841,168.952 C 417.587,168.327 408.81,160.569 392.513,145.683 C 391.759,143.429 390.099,141.05 387.528,138.55 C 384.958,136.05 381.478,133.483 377.091,130.858 C 375.837,128.733 374.333,125.948 372.579,122.507 C 370.821,119.069 368.817,115.034 366.563,110.405 C 365.31,107.026 364.212,103.804 363.274,100.737 C 362.333,97.679 361.548,94.956 360.923,92.577 C 359.669,87.573 357.478,81.632 354.345,74.749 C 351.212,67.87 347.388,59.862 342.88,50.729 C 337.364,39.847 332.442,31.714 328.122,26.331 C 323.798,20.956 320.196,18.327 317.313,18.452 C 314.306,18.702 311.892,18.921 310.075,19.108 C 308.255,19.296 307.099,19.515 306.599,19.765 C 305.47,20.515 304.688,21.796 304.247,23.608 C 303.813,25.421 303.591,27.765 303.591,30.636 C 303.591,32.511 303.907,35.417 304.528,39.351 C 305.153,43.292 306.095,48.132 307.349,53.882 C 308.224,57.882 309.384,61.784 310.825,65.597 C 312.267,69.409 313.927,73.19 315.81,76.937 C 317.438,80.562 319.13,84.062 320.884,87.437 C 322.638,90.812 324.454,94.437 326.337,98.308 C 330.47,103.308 334.513,108.745 338.462,114.616 C 342.407,120.495 346.388,126.866 350.399,133.737 C 351.149,136.362 351.935,139.702 352.747,143.765 C 353.56,147.827 354.407,152.667 355.286,158.292 C 356.411,164.292 357.353,169.788 358.103,174.788 C 358.728,179.038 359.263,182.413 359.7,184.913 C 360.138,187.413 360.294,189.101 360.169,189.976 L 359.044,199.722 L 362.231,209.843 C 361.731,211.343 361.075,212.499 360.263,213.312 C 359.45,214.124 358.544,214.53 357.544,214.53 C 355.169,214.53 352.915,213.905 350.79,212.663 C 348.665,211.417 346.665,209.612 344.79,207.245 C 342.665,204.378 340.036,201.358 336.911,198.183 C 333.786,195.007 330.099,191.491 325.849,187.632 C 320.595,182.897 316.278,179.007 312.903,175.956 C 309.528,172.905 307.16171,170.49829 305.66171,168.88129 C 305.03671,170.50629 304.185,172.515 303.247,174.765 C 302.31,177.015 301.06024,178.26218 300.06024,181.26218 C 299.81024,182.01218 299.45003,182.69644 298.90803,183.85347 C 298.59883,184.51351 298.09603,185.33203 298.091,186.202"
         id="path31"
         style="fill:#000000;fill-opacity:1;fill-rule:nonzero;stroke:none" /><path
         d="M 489.447,333.952 C 492.572,333.952 494.854,333.327 496.291,332.077 C 497.729,330.827 498.447,329.015 498.447,326.64 C 497.697,323.14 497.072,320.202 496.572,317.827 C 495.322,313.327 494.229,309.64 493.291,306.765 C 492.354,303.89 491.635,301.827 491.135,300.577 C 490.01,297.827 488.479,295.421 486.541,293.358 C 484.604,291.296 482.26,289.452 479.51,287.827 C 476.635,285.827 474.229,284.421 472.291,283.608 C 470.354,282.796 469.01,282.452 468.26,282.577 C 466.135,282.827 464.104,283.046 462.166,283.233 C 460.229,283.421 458.322,283.515 456.447,283.515 C 454.822,284.39 453.541,286.077 452.604,288.577 C 451.666,291.077 451.197,294.452 451.197,298.702 C 451.197,302.452 453.479,307.171 458.041,312.858 C 462.604,318.546 466.635,321.577 470.135,321.952 C 472.26,324.577 474.76,327.577 477.635,330.952 C 478.885,331.827 480.51,332.546 482.51,333.108 C 484.51,333.671 486.822,333.952 489.447,333.952 M 410.947,186.202 L 413.372,188.815 L 415.935,191.99 C 419.314,196.615 421.951,200.046 430.455,207.483 C 438.959,214.921 444.838,220.952 448.092,225.577 C 449.342,227.577 450.779,229.015 452.404,229.89 C 454.029,230.765 455.658,231.202 457.283,231.202 C 461.658,231.202 465.35,230.104 468.35,227.913 C 471.35,225.718 473.354,222.433 474.354,218.05 C 475.229,214.167 476.045,210.249 476.795,206.304 C 477.545,202.358 478.17,198.382 478.67,194.374 C 479.545,191.897 480.607,188.132 481.857,183.085 C 483.107,178.038 484.049,175.14 484.674,174.39 C 485.299,173.14 486.236,172.233 487.486,171.671 C 488.736,171.108 490.303,170.827 492.178,170.827 C 494.428,170.827 496.744,171.233 499.119,172.046 C 501.494,172.858 503.936,174.265 506.439,176.265 C 508.314,177.89 510.283,179.546 512.346,181.233 C 514.408,182.921 516.443,184.577 518.447,186.202 L 525.947,168.952 C 523.947,166.937 521.287,164.64 517.975,162.062 C 514.658,159.479 510.686,156.491 506.061,153.093 C 500.932,149.315 496.553,146.515 492.928,144.69 C 489.299,142.862 486.549,141.952 484.674,141.952 C 473.291,141.952 465.908,143.265 462.533,145.897 C 459.158,148.526 455.404,155.854 451.279,167.882 C 450.779,168.968 450.025,170.202 449.025,171.577 C 448.025,172.952 446.9,174.577 445.65,176.452 C 444.15,179.327 442.834,181.483 441.709,182.921 C 440.584,184.358 439.646,185.077 438.896,185.077 C 436.896,185.077 434.205,183.733 430.83,181.046 C 427.451,178.358 423.422,174.227 418.547,168.852 C 417.922,170.477 417.041,172.515 416.104,174.765 C 415.166,177.015 413.997,179.04 412.997,182.04 C 412.747,182.79 412.435,183.377 412.06,184.002 C 411.685,184.627 411.247,184.727 410.747,185.702"
         id="path33"
         style="fill:#000000;fill-opacity:1;fill-rule:nonzero;stroke:none" /><path
         d="M 185.421,320.303 C 183.864,314.988 217.363,323.95 216,318.381 C 214.853,313.695 207.643,300.402 206.622,295.551 C 205.312,289.329 176.396,283.556 175.273,277.088 C 169.656,244.723 165.122,202.993 162.519,166.649 L 111.62,166.649 C 118.966,275.251 149.401,353.778 192.692,415.297 L 227.324,400.175 C 208.226,380.249 194.932,352.752 185.421,320.303"
         id="path35"
         style="fill:#8b5c29;fill-opacity:1;fill-rule:nonzero;stroke:none" /><path
         d="M 185.421,320.303 C 183.864,314.988 217.363,323.95 216,318.381 C 214.853,313.695 207.643,300.402 206.622,295.551 C 205.312,289.329 176.396,283.556 175.273,277.088 C 169.656,244.723 165.122,202.993 162.519,166.649 L 111.62,166.649 C 118.966,275.251 149.401,353.778 192.692,415.297 L 227.324,400.175 C 208.226,380.249 194.932,352.752 185.421,320.303 z"
         id="path37"
         style="fill:none;stroke:#000000;stroke-width:1;stroke-linecap:butt;stroke-linejoin:miter;stroke-miterlimit:4;stroke-dasharray:none;stroke-opacity:1" /><path
         d="M 194.922,494.354 C 190.724,510.163 180.098,517.381 167.111,521.677 C 166.848,527.176 169.865,528.035 169.472,533.876 C 153.729,538.689 134.708,536.971 118.573,533.876 C 116.737,545.389 127.361,540.579 127.887,549 C 118.573,559.996 98.501,543.156 90.894,552.092 C 132.084,604.674 239.787,592.645 245.821,506.382 C 273.764,552.607 371.496,601.41 410.195,533.705 L 370.841,533.705 C 362.313,531.299 370.577,523.051 366.249,518.584 C 352.605,527.347 340.143,511.367 324.532,512.57 C 323.614,501.4 333.978,504.665 331.485,491.261 C 322.039,496.416 304.462,489.199 296.721,482.154 C 322.171,475.109 348.802,489.716 373.07,479.062 C 402.98,466.001 407.572,408.436 384.615,381.974 C 377.662,387.988 377.399,402.938 373.07,412.217 C 364.544,415.482 369.397,400.703 361.526,403.109 C 355.754,418.919 344.21,426.996 331.485,433.352 C 326.368,432.151 331.485,417.201 326.894,415.139 C 316.006,417.027 310.232,425.792 296.852,424.246 C 336.207,373.038 293.441,304.133 257.496,287.81 C 249.364,300.18 270.747,321.831 264.45,351.56 C 254.217,353.965 250.15,338.501 243.591,345.544 C 249.625,353.965 251.462,367.368 250.544,384.896 C 243.854,381.63 235.327,380.6 229.687,375.787 C 220.371,379.053 229.948,388.159 227.324,400.017 L 192.692,415.139 C 176.294,411.531 170.259,393.829 160.289,381.802 C 151.894,376.99 158.846,392.112 153.337,390.911 C 139.037,382.489 133.92,361.868 125.395,345.716 C 116.081,345.716 117.786,359.979 111.489,363.931 C 99.026,357.917 93.909,342.452 86.04,330.594 C 73.708,336.438 76.987,358.432 79.087,367.023 C 88.138,403.454 137.463,433.696 167.111,442.803 C 149.663,459.128 126.837,434.04 109.259,430.604 C 107.685,440.054 111.62,441.602 111.62,448.818 C 92.599,444.35 82.628,428.197 69.903,415.482 C 62.688,413.935 63.476,423.042 60.589,427.682 C 43.403,420.637 38.419,398.299 21.233,391.251 C 22.153,497.104 119.099,524.942 194.922,494.354"
         id="path39"
         style="fill:#006b33;fill-opacity:1;fill-rule:nonzero;stroke:none" /><path
         d="M 194.922,494.354 C 190.724,510.163 180.098,517.381 167.111,521.677 C 166.848,527.176 169.865,528.035 169.472,533.876 C 153.729,538.689 134.708,536.971 118.573,533.876 C 116.737,545.389 127.361,540.579 127.887,549 C 118.573,559.996 98.501,543.156 90.894,552.092 C 132.084,604.674 239.787,592.645 245.821,506.382 C 273.764,552.607 371.496,601.41 410.195,533.705 L 370.841,533.705 C 362.313,531.299 370.577,523.051 366.249,518.584 C 352.605,527.347 340.143,511.367 324.532,512.57 C 323.614,501.4 333.978,504.665 331.485,491.261 C 322.039,496.416 304.462,489.199 296.721,482.154 C 322.171,475.109 348.802,489.716 373.07,479.062 C 402.98,466.001 407.572,408.436 384.615,381.974 C 377.662,387.988 377.399,402.938 373.07,412.217 C 364.544,415.482 369.397,400.703 361.526,403.109 C 355.754,418.919 344.21,426.996 331.485,433.352 C 326.368,432.151 331.485,417.201 326.894,415.139 C 316.006,417.027 310.232,425.792 296.852,424.246 C 336.207,373.038 293.441,304.133 257.496,287.81 C 249.364,300.18 270.747,321.831 264.45,351.56 C 254.217,353.965 250.15,338.501 243.591,345.544 C 249.625,353.965 251.462,367.368 250.544,384.896 C 243.854,381.63 235.327,380.6 229.687,375.787 C 220.371,379.053 229.948,388.159 227.324,400.017 L 192.692,415.139 C 176.294,411.531 170.259,393.829 160.289,381.802 C 151.894,376.99 158.846,392.112 153.337,390.911 C 139.037,382.489 133.92,361.868 125.395,345.716 C 116.081,345.716 117.786,359.979 111.489,363.931 C 99.026,357.917 93.909,342.452 86.04,330.594 C 73.708,336.438 76.987,358.432 79.087,367.023 C 88.138,403.454 137.463,433.696 167.111,442.803 C 149.663,459.128 126.837,434.04 109.259,430.604 C 107.685,440.054 111.62,441.602 111.62,448.818 C 92.599,444.35 82.628,428.197 69.903,415.482 C 62.688,413.935 63.476,423.042 60.589,427.682 C 43.403,420.637 38.419,398.299 21.233,391.251 C 22.153,497.104 119.099,524.942 194.922,494.354 z"
         id="path41"
         style="fill:none;stroke:#000000;stroke-width:1;stroke-linecap:butt;stroke-linejoin:miter;stroke-miterlimit:4;stroke-dasharray:none;stroke-opacity:1" /></g></g></svg>